<?xml version="1.0" standalone="no"?>
<!DOCTYPE svg PUBLIC "-//W3C//DTD SVG 20010904//EN"
 "http://www.w3.org/TR/2001/REC-SVG-20010904/DTD/svg10.dtd">
<svg version="1.0" xmlns="http://www.w3.org/2000/svg"
 width="2757.000000pt" height="1836.000000pt" viewBox="0 0 2757.000000 1836.000000"
 preserveAspectRatio="xMidYMid meet">

<g transform="translate(0.000000,1836.000000) scale(0.100000,-0.100000)"
fill="#000000" stroke="none">
<path d="M10 9180 l0 -9170 13780 0 13780 0 0 9170 0 9170 -13780 0 -13780 0
0 -9170z m12717 4642 c460 -74 777 -225 1054 -501 240 -241 391 -532 463 -891
38 -189 49 -321 50 -590 1 -276 -6 -313 -69 -368 -65 -57 -59 -57 -690 -57
l-580 0 -56 26 c-45 21 -63 37 -85 74 -26 45 -28 55 -35 230 -8 206 -13 248
-41 359 -36 147 -114 262 -220 325 -54 32 -163 67 -275 87 -84 16 -157 19
-518 19 -452 0 -531 -6 -680 -52 -196 -61 -289 -159 -349 -365 -42 -146 -51
-243 -51 -543 0 -266 1 -283 23 -345 67 -193 246 -326 544 -405 130 -34 237
-51 439 -70 328 -31 655 -80 927 -141 355 -79 795 -227 974 -327 163 -91 326
-237 457 -410 60 -79 73 -102 65 -115 -6 -9 -140 -242 -299 -517 -159 -275
-421 -729 -583 -1010 -338 -586 -472 -817 -892 -1545 -167 -289 -425 -736
-575 -995 -149 -258 -361 -626 -471 -816 -109 -191 -200 -346 -201 -345 -2 1
153 364 343 807 190 442 348 810 351 817 4 9 -76 12 -378 12 -390 0 -538 8
-709 36 -798 132 -1320 626 -1474 1396 -37 181 -46 301 -46 592 0 232 2 265
19 302 25 54 83 101 143 114 31 6 253 10 597 10 618 0 626 -1 691 -69 48 -50
60 -97 60 -229 0 -60 5 -156 11 -213 40 -396 169 -542 534 -605 122 -21 759
-31 975 -15 468 34 638 176 701 586 7 44 13 177 13 295 0 178 -3 226 -18 280
-24 86 -75 183 -132 247 -88 102 -286 212 -480 268 -112 32 -219 50 -454 75
-508 53 -1016 159 -1458 305 -331 109 -477 187 -637 337 -311 290 -497 695
-562 1218 -25 210 -26 956 0 1140 69 488 226 825 518 1106 141 135 264 220
440 303 226 106 437 159 779 195 19 2 413 3 875 2 805 -2 846 -3 972 -24z
m3998 -34 c-9 -18 -166 -384 -350 -813 l-334 -780 307 -6 c505 -11 772 -65
1081 -220 429 -215 719 -588 840 -1079 59 -241 64 -295 68 -784 5 -468 -1
-576 -37 -732 -100 -428 -368 -723 -809 -889 l-83 -32 98 -23 c252 -58 434
-153 602 -314 140 -135 234 -298 287 -501 47 -179 50 -225 50 -835 0 -634 -5
-715 -66 -960 -163 -670 -624 -1109 -1315 -1253 -253 -53 -199 -52 -1984 -52
l-1665 0 -48 24 c-59 28 -93 77 -107 150 -6 35 -10 586 -10 1577 l0 1523 166
288 c385 667 689 1194 967 1673 109 190 240 417 291 505 l91 159 5 -635 c6
-711 2 -677 77 -698 50 -14 1293 -14 1423 -1 322 34 495 167 566 435 17 63 19
112 19 480 0 457 -4 488 -71 631 -60 128 -178 218 -351 266 -76 22 -95 22
-720 26 -429 2 -643 6 -643 13 0 6 119 216 264 467 342 594 300 521 884 1532
277 481 506 878 509 883 12 21 11 3 -2 -25z"/>
<path d="M14830 7827 c-14 -7 -33 -28 -43 -47 -16 -33 -17 -96 -15 -988 l3
-954 33 -29 33 -30 812 4 c902 3 877 2 1025 72 147 69 237 190 279 370 16 72
18 130 18 590 0 453 -2 518 -18 585 -46 198 -147 315 -329 381 -153 56 -200
59 -1023 59 -580 0 -756 -3 -775 -13z"/>
</g>
</svg>
